<svg width="28" height="26" viewBox="0 0 28 26" fill="none" xmlns="http://www.w3.org/2000/svg">
<g filter="url(#filter0_d)">
<path d="M13.9971 21C13.0358 21 5 16.1736 5 9.52983C5 7.0281 7.15863 5 9.82146 5C11.6076 5 13.1669 5.91253 14 7.26838C14.8331 5.91253 16.3924 5 18.1785 5C20.8414 5 23 7.0281 23 9.52983C23 16.1736 14.9644 20.9999 14.0147 20.9999C14.0117 20.9999 14.0088 21 14.0059 21C14.0059 21 14 21 13.9971 21Z" fill="url(#paint0_linear)"/>
</g>
<defs>
<filter id="filter0_d" x="0" y="0" width="28" height="26" filterUnits="userSpaceOnUse" color-interpolation-filters="sRGB">
<feFlood flood-opacity="0" result="BackgroundImageFix"/>
<feColorMatrix in="SourceAlpha" type="matrix" values="0 0 0 0 0 0 0 0 0 0 0 0 0 0 0 0 0 0 127 0"/>
<feOffset/>
<feGaussianBlur stdDeviation="2.5"/>
<feColorMatrix type="matrix" values="0 0 0 0 0 0 0 0 0 0 0 0 0 0 0 0 0 0 0.25 0"/>
<feBlend mode="normal" in2="BackgroundImageFix" result="effect1_dropShadow"/>
<feBlend mode="normal" in="SourceGraphic" in2="effect1_dropShadow" result="shape"/>
</filter>
<linearGradient id="paint0_linear" x1="14" y1="5" x2="14" y2="21" gradientUnits="userSpaceOnUse">
<stop stop-color="#FF2E2E"/>
<stop offset="1" stop-color="#FF6A2D"/>
</linearGradient>
</defs>
</svg>
