<svg width="154" height="185" viewBox="0 0 154 185" fill="none" xmlns="http://www.w3.org/2000/svg">
<path d="M39.5527 50.8068C39.6607 47.1895 39.7718 43.4681 41.2591 41.2589C43.4683 39.7716 47.1897 39.6605 50.8069 39.5526C55.9902 39.3979 60.9597 39.2495 60.9597 35.0675C60.9597 31.731 59.5977 27.1819 57.5699 22.4399H48.5711C45.1051 15.1791 39.9575 8 37.974 8C36.4536 8 33.0743 12.2179 30.0181 17.4575C23.4843 15.5494 17.0777 14.7075 15.8926 15.8926C14.7076 17.0777 15.5494 23.4843 17.4576 30.0181C12.218 33.0743 8 36.4537 8 37.974C8 39.9704 15.273 45.1723 22.5819 48.6387C22.4466 51.4263 22.3067 54.3744 22.1646 57.4514C27.0056 59.5445 31.6666 60.9597 35.0676 60.9597C39.0017 60.9597 39.398 55.9901 39.5527 50.8068Z" fill="url(#paint0_linear)"/>
<path d="M65.1657 22.4399C66.7193 26.5155 68.0017 31.0369 68.0017 35.0675C68.0017 36.434 67.9031 37.7783 67.7126 39.0931C67.7865 39.0998 67.8251 39.104 67.8251 39.104C82.872 39.2446 94.4735 44.1665 102.63 53.8696C110.856 63.5024 114.97 77.0376 114.97 94.4751V103.44C114.97 121.37 110.61 135.186 101.891 144.889C93.243 154.592 81.1141 159.444 65.5048 159.444C65.5048 159.444 53.501 159.444 44.2001 152.502C37.243 147.31 39.4633 96.1752 43.3259 66.7555C40.7165 67.5657 37.941 68.0017 35.0676 68.0017C30.9522 68.0017 26.3253 66.6648 22.1835 65.0674C22.0649 65.0216 21.9461 64.9754 21.8273 64.9288C19.705 113.095 17.5833 184.002 23.9501 176.002C30.1446 168.219 39.201 170.532 49.3298 173.119C54.8179 174.52 60.6209 176.002 66.454 176.002C80.2352 175.862 92.2938 172.874 102.63 167.038C113.036 161.202 121.016 152.834 126.571 141.936C132.196 131.038 135.009 118.346 135.009 103.862V94.0532C134.938 79.9204 132.091 67.4048 126.466 56.5063C120.911 45.6079 113.001 37.2055 102.735 31.2993C92.4696 25.393 80.6571 22.4399 67.2977 22.4399H65.1657Z" fill="url(#paint1_linear)"/>
<path d="M127.501 177.002C137.718 177.002 146.001 168.719 146.001 158.502C146.001 148.284 132.178 142.149 130.002 146.502C126.002 154.502 121.002 159.787 113.502 166.002C109.717 169.137 117.284 177.002 127.501 177.002Z" fill="url(#paint2_linear)"/>
<defs>
<linearGradient id="paint0_linear" x1="74.6019" y1="-81.1572" x2="74.6019" y2="244.403" gradientUnits="userSpaceOnUse">
<stop stop-color="#FF9F2E"/>
<stop offset="1" stop-color="#FF2E2E"/>
</linearGradient>
<linearGradient id="paint1_linear" x1="74.6019" y1="-81.1572" x2="74.6019" y2="244.403" gradientUnits="userSpaceOnUse">
<stop stop-color="#FF9F2E"/>
<stop offset="1" stop-color="#FF2E2E"/>
</linearGradient>
<linearGradient id="paint2_linear" x1="74.6019" y1="-81.1572" x2="74.6019" y2="244.403" gradientUnits="userSpaceOnUse">
<stop stop-color="#FF9F2E"/>
<stop offset="1" stop-color="#FF2E2E"/>
</linearGradient>
</defs>
</svg>
